<svg xmlns="http://www.w3.org/2000/svg" viewBox="0 0 48 48" id="front-bumper"><g data-name="Front Bumper"><path d="M11.86 27a4 4 0 1 0-2.34 4.68A3 3 0 1 0 11.86 27zM6 28a2 2 0 0 1 4-.2 3 3 0 0 0-1 1.91A2 2 0 0 1 6 28zm6 3a1 1 0 0 1 0-2 1 1 0 0 1 0 2zm24.14-4a3 3 0 1 0 2.34 4.68A4 4 0 1 0 36.14 27zM36 31a1 1 0 0 1 0-2 1 1 0 0 1 0 2zm6-3a2 2 0 0 1-3 1.71 2.93 2.93 0 0 0-1-1.91 2 2 0 0 1 4 .2zm-12-4H18a1 1 0 0 0-1 1v5a4 4 0 0 0 4 4h6a4 4 0 0 0 4-4v-5a1 1 0 0 0-1-1zm-1 2v2H19v-2zm-2 6h-6a2 2 0 0 1-2-2h10a2 2 0 0 1-2 2z"></path><path d="M48 16.72c-.1-.32 0-.13-5.19-6.36C42.33 9.83 45.15 10 6 10c-.65 0-.45 0-5.77 6.36C-.1 16.76 0 16.27 0 27a11 11 0 0 0 11 11h26a11 11 0 0 0 11-11V16.72ZM6.47 12h35.06l4.09 4.9a12.54 12.54 0 0 1-8.28 3.1H10.66a12.54 12.54 0 0 1-8.28-3.1ZM46 27a9 9 0 0 1-9 9H11a9 9 0 0 1-9-9v-7.83A14.53 14.53 0 0 0 10.66 22h26.68A14.53 14.53 0 0 0 46 19.17Z"></path></g></svg>