<svg xmlns="http://www.w3.org/2000/svg" viewBox="0 0 64 80" x="0px" y="0px"><g><path d="M32,54a73,73,0,0,1-14.1-1.38,1,1,0,0,1-.79-1.17,1,1,0,0,1,1.18-.79,71.07,71.07,0,0,0,27.42,0,1,1,0,1,1,.39,2A73,73,0,0,1,32,54Z"/><path d="M54,44.92a1,1,0,0,1-1-1V13.06c-13.94,10.58-28.06,10.58-42,0V43.92a1,1,0,0,1-2,0V11a1,1,0,0,1,1.63-.77C25,22,39,22,53.37,10.23A1,1,0,0,1,55,11V43.92A1,1,0,0,1,54,44.92Z"/><path d="M45.91,52.64h0a1,1,0,0,1-1-1A9,9,0,0,1,54,42.92a1,1,0,0,1,0,2,7,7,0,0,0-7.09,6.75A1,1,0,0,1,45.91,52.64Z"/><path d="M18.09,52.64a1,1,0,0,1-1-1A7,7,0,0,0,10,44.92a1,1,0,0,1,0-2,9,9,0,0,1,9.09,8.69,1,1,0,0,1-1,1Z"/><path d="M37,45a1,1,0,0,1-1-1V27H28V44a1,1,0,0,1-2,0V26a1,1,0,0,1,1-1H37a1,1,0,0,1,1,1V44A1,1,0,0,1,37,45Z"/><path d="M48,25H44a1,1,0,0,1,0-2h4a1,1,0,0,1,0,2Z"/><path d="M20,25H16a1,1,0,0,1,0-2h4a1,1,0,0,1,0,2Z"/></g><text x="0" y="79" fill="#000000" font-size="5px" font-weight="bold" font-family="'Helvetica Neue', Helvetica, Arial-Unicode, Arial, Sans-serif">Created by Ade Nur Hidayat</text><text x="0" y="84" fill="#000000" font-size="5px" font-weight="bold" font-family="'Helvetica Neue', Helvetica, Arial-Unicode, Arial, Sans-serif">from the Noun Project</text></svg>