<svg xmlns="http://www.w3.org/2000/svg" xmlns:xlink="http://www.w3.org/1999/xlink" version="1.1" x="0px" y="0px" viewBox="0 0 66 82.5" style="enable-background:new 0 0 66 66;" xml:space="preserve"><path d="M46.65,29.74h-27.3c-1.39,0-2.6,0.84-3.08,2.14c-0.48,1.3-0.12,2.73,0.94,3.63l4.08,3.51c1.25,1.07,2.84,1.66,4.48,1.66  h14.48c1.64,0,3.23-0.59,4.48-1.66l4.08-3.51c1.05-0.91,1.42-2.33,0.94-3.63C49.25,30.58,48.04,29.74,46.65,29.74z M47.53,34.04  l-4.08,3.51c-0.89,0.77-2.03,1.19-3.21,1.19H25.76c-1.18,0-2.32-0.42-3.21-1.19l-4.08-3.51c-0.66-0.57-0.46-1.28-0.38-1.49  c0.08-0.21,0.39-0.88,1.26-0.88h27.3c0.87,0,1.19,0.67,1.26,0.88C47.99,32.76,48.19,33.48,47.53,34.04z"/><path d="M30.36,34.25h-4.21c-0.54,0-0.97,0.43-0.97,0.97c0,0.54,0.43,0.97,0.97,0.97h4.21c0.54,0,0.97-0.43,0.97-0.97  C31.33,34.68,30.9,34.25,30.36,34.25z"/><path d="M39.85,34.25h-4.21c-0.54,0-0.97,0.43-0.97,0.97c0,0.54,0.43,0.97,0.97,0.97h4.21c0.54,0,0.97-0.43,0.97-0.97  C40.82,34.68,40.38,34.25,39.85,34.25z"/><path d="M64.03,17.69c-0.54,0-0.97,0.43-0.97,0.97c0,1.5-1.22,2.73-2.73,2.73H5.67c-1.51,0-2.73-1.22-2.73-2.73  c0-0.54-0.43-0.97-0.97-0.97C1.43,17.69,1,18.13,1,18.66v19.23c0,2.27,1.82,6.61,4.67,6.61H7.3v0.74c0,1.69,1.37,3.06,3.06,3.06  h45.29c1.69,0,3.06-1.37,3.06-3.06V44.5h1.63c2.57,0,4.67-2.1,4.67-4.67V18.66C65,18.13,64.57,17.69,64.03,17.69z M2.94,22.45  c0.77,0.56,1.71,0.88,2.73,0.88h54.66c1.02,0,1.96-0.33,2.73-0.88v0.75c0,1.5-1.22,2.73-2.73,2.73H5.67c-1.51,0-2.73-1.22-2.73-2.73  V22.45z M56.77,45.25c0,0.62-0.5,1.12-1.12,1.12H10.36c-0.62,0-1.12-0.5-1.12-1.12V44.5h47.53V45.25z M60.33,42.56H5.67  c-1.24,0-2.73-2.87-2.73-4.67V26.97c0.77,0.56,1.71,0.9,2.73,0.9h54.66c1.02,0,1.96-0.34,2.73-0.9v12.86  C63.06,41.34,61.84,42.56,60.33,42.56z"/><path d="M59.33,31.6l-6.52,1.17c-0.93,0.17-1.61,0.98-1.61,1.92v2.21c0,0.62,0.3,1.21,0.81,1.58c0.34,0.24,0.74,0.37,1.15,0.37  c0.2,0,0.41-0.03,0.6-0.1l6.52-2.12c0,0,0,0,0,0c0.81-0.26,1.35-1.01,1.35-1.86v-1.27c0-0.58-0.26-1.13-0.7-1.5  C60.49,31.65,59.9,31.5,59.33,31.6z M59.69,34.79c0,0.01,0,0.01-0.01,0.01l-6.53,2.11l0.01-2.23l6.53-1.16V34.79z"/><path d="M13.18,32.77L6.67,31.6c-0.57-0.11-1.15,0.05-1.6,0.42c-0.45,0.37-0.7,0.92-0.7,1.5v1.27c0,0.85,0.54,1.59,1.35,1.86  c0,0,0,0,0,0l6.52,2.12c0.2,0.06,0.4,0.1,0.6,0.1c0.41,0,0.81-0.13,1.15-0.37c0.5-0.37,0.81-0.96,0.81-1.58V34.7  C14.79,33.75,14.11,32.94,13.18,32.77z M12.83,36.92L6.32,34.8l-0.3,0.92l0.29-0.94l0.02-1.28l6.53,1.19L12.83,36.92z"/><text x="0" y="81" fill="#000000" font-size="5px" font-weight="bold" font-family="'Helvetica Neue', Helvetica, Arial-Unicode, Arial, Sans-serif">Created by Candy Design</text><text x="0" y="86" fill="#000000" font-size="5px" font-weight="bold" font-family="'Helvetica Neue', Helvetica, Arial-Unicode, Arial, Sans-serif">from the Noun Project</text></svg>