<svg xmlns="http://www.w3.org/2000/svg" xmlns:xlink="http://www.w3.org/1999/xlink" version="1.1" x="0px" y="0px" viewBox="0 0 48 60" style="enable-background:new 0 0 48 48;" xml:space="preserve"><g><path d="M5,44.5h22c0.28,0,0.5-0.22,0.5-0.5c0-1.66,0.26-3.29,0.77-4.84c0.46-1.39,1.1-2.7,1.9-3.88   c2.89-4.25,7.69-6.78,12.83-6.78c0.28,0,0.5-0.22,0.5-0.5v-8c0-0.13-0.05-0.26-0.15-0.35l-16-16C27.26,3.55,27.13,3.5,27,3.5H5   C4.72,3.5,4.5,3.72,4.5,4v31v4v5C4.5,44.28,4.72,44.5,5,44.5z M5.5,4.5h21.29L42.5,20.21v7.3c-5.19,0.16-10,2.74-12.99,6.99H5.5   V4.5z M5.5,35.5h23.35c-0.01,0.02-0.03,0.05-0.04,0.07c-0.25,0.42-0.47,0.85-0.68,1.29c-0.05,0.1-0.09,0.21-0.14,0.31   c-0.16,0.36-0.31,0.73-0.45,1.1c-0.03,0.08-0.07,0.15-0.09,0.23H5.5V35.5z M5.5,39.5h21.63c-0.37,1.3-0.59,2.64-0.63,4H5.5V39.5z"/><path d="M9,24.5h26c0.28,0,0.5-0.22,0.5-0.5v-6c0-0.13-0.05-0.26-0.15-0.35l-10-10C25.26,7.55,25.13,7.5,25,7.5H9   C8.72,7.5,8.5,7.72,8.5,8v16C8.5,24.28,8.72,24.5,9,24.5z M9.5,8.5h15.29l9.71,9.71v5.29h-25V8.5z"/><path d="M15,27.5H9c-0.28,0-0.5,0.22-0.5,0.5v2c0,0.28,0.22,0.5,0.5,0.5h6c0.28,0,0.5-0.22,0.5-0.5v-2   C15.5,27.72,15.28,27.5,15,27.5z M14.5,29.5h-5v-1h5V29.5z"/><path d="M20.89,13.35c0.2-0.2,0.2-0.51,0-0.71s-0.51-0.2-0.71,0l-3.54,3.54c-0.2,0.2-0.2,0.51,0,0.71c0.1,0.1,0.23,0.15,0.35,0.15   s0.26-0.05,0.35-0.15L20.89,13.35z"/><path d="M22.3,13.35l-4.95,4.95c-0.2,0.2-0.2,0.51,0,0.71c0.1,0.1,0.23,0.15,0.35,0.15s0.26-0.05,0.35-0.15l4.95-4.95   c0.2-0.2,0.2-0.51,0-0.71S22.5,13.16,22.3,13.35z"/></g><text x="0" y="63" fill="#000000" font-size="5px" font-weight="bold" font-family="'Helvetica Neue', Helvetica, Arial-Unicode, Arial, Sans-serif">Created by projecthayat</text><text x="0" y="68" fill="#000000" font-size="5px" font-weight="bold" font-family="'Helvetica Neue', Helvetica, Arial-Unicode, Arial, Sans-serif">from the Noun Project</text></svg>