<svg xmlns="http://www.w3.org/2000/svg" viewBox="0 0 64 80" x="0px" y="0px"><g><path d="M59.5259,9.1494a.9988.9988,0,0,0-.9732-.0439A66.2964,66.2964,0,0,1,32,15,66.44,66.44,0,0,1,5.4468,9.1055,1,1,0,0,0,4,10V46a1,1,0,0,0,1,1H7a5.0059,5.0059,0,0,1,5,5,1.0009,1.0009,0,0,0,.7251.9619C13.0166,53.0449,19.998,55,32,55s18.9834-1.9551,19.2749-2.0381A1.0009,1.0009,0,0,0,52,52a5.0059,5.0059,0,0,1,5-5h2a1,1,0,0,0,1-1V10A1.001,1.001,0,0,0,59.5259,9.1494ZM58,45H57a7.0093,7.0093,0,0,0-6.9556,6.2109A80.8914,80.8914,0,0,1,32,53a81.0958,81.0958,0,0,1-18.0444-1.79A7.01,7.01,0,0,0,7,45H6V11.56A68.1251,68.1251,0,0,0,32,17a68.1251,68.1251,0,0,0,26-5.44ZM26,19H38a1,1,0,0,1,1,1V46a1,1,0,0,1-2,0V21H27V46a1,1,0,0,1-2,0V20A1,1,0,0,1,26,19Zm-5,1a1,1,0,0,1-1,1H16a1,1,0,0,1,0-2h4A1,1,0,0,1,21,20Zm22,0a1,1,0,0,1,1-1h4a1,1,0,0,1,0,2H44A1,1,0,0,1,43,20Z"/></g><text x="0" y="79" fill="#000000" font-size="5px" font-weight="bold" font-family="'Helvetica Neue', Helvetica, Arial-Unicode, Arial, Sans-serif">Created by Bartama Graphic</text><text x="0" y="84" fill="#000000" font-size="5px" font-weight="bold" font-family="'Helvetica Neue', Helvetica, Arial-Unicode, Arial, Sans-serif">from the Noun Project</text></svg>