<svg xmlns="http://www.w3.org/2000/svg" xmlns:xlink="http://www.w3.org/1999/xlink" version="1.1" x="0px" y="0px" viewBox="0 0 100 125" enable-background="new 0 0 100 100" xml:space="preserve"><path d="M80.975,31.056c-0.086-0.025-8.655-2.632-9.756-11.16c-0.005-0.037-0.029-0.067-0.038-0.102  c-0.024-0.1-0.054-0.195-0.105-0.28c-0.023-0.038-0.052-0.067-0.079-0.101c-0.065-0.083-0.137-0.153-0.223-0.211  c-0.017-0.011-0.025-0.03-0.042-0.04c-0.334-0.195-8.327-4.787-20.332-4.787l-0.392,0.002L49.6,14.375  c-12.006,0-19.998,4.591-20.332,4.787c-0.017,0.01-0.026,0.029-0.043,0.04c-0.088,0.059-0.161,0.13-0.227,0.214  c-0.026,0.033-0.053,0.06-0.074,0.096c-0.052,0.087-0.083,0.184-0.107,0.286c-0.008,0.035-0.032,0.063-0.037,0.099  c-1.097,8.494-9.404,11.055-9.757,11.16c-0.267,0.079-0.49,0.267-0.613,0.516c-9.312,18.847-7.827,42.202-7.15,48.911  c0.032,0.317,0.213,0.6,0.488,0.761c0.156,0.092,0.331,0.138,0.507,0.138c0.134,0,0.269-0.027,0.396-0.082  c9.45-4.071,23.344-6.406,38.12-6.406c13.929,0,27.294,2.117,36.668,5.808c0.291,0.115,0.621,0.086,0.89-0.079  c0.268-0.165,0.443-0.446,0.472-0.759c0.619-6.654,1.926-29.801-7.21-48.292C81.466,31.322,81.244,31.135,80.975,31.056z   M86.92,78.367c-9.513-3.485-22.585-5.472-36.15-5.472c-14.395,0-28.007,2.194-37.645,6.044c-0.67-7.882-1.447-28.899,6.895-46.106  c1.355-0.48,5.496-2.221,8.262-6.195l-3.27,44.282c-0.041,0.551,0.373,1.03,0.923,1.071c0.025,0.002,0.05,0.003,0.075,0.003  c0.519,0,0.958-0.401,0.996-0.926l3.723-50.422c1.808-0.935,8.957-4.27,18.87-4.27l0.409,0.002l0.392-0.002  c9.885,0,17.057,3.337,18.871,4.272l3.724,50.421c0.039,0.526,0.477,0.926,0.996,0.926c0.024,0,0.05-0.001,0.075-0.003  c0.551-0.041,0.964-0.52,0.923-1.071l-3.27-44.281c2.766,3.974,6.907,5.714,8.262,6.194C88.168,49.729,87.526,70.566,86.92,78.367z"/><path d="M50,17.676c-2.015,0-3.654,1.639-3.654,3.654c0,2.015,1.639,3.654,3.654,3.654s3.654-1.639,3.654-3.654  C53.654,19.315,52.015,17.676,50,17.676z M50,22.984c-0.912,0-1.654-0.742-1.654-1.654s0.742-1.654,1.654-1.654  s1.654,0.742,1.654,1.654S50.912,22.984,50,22.984z"/><text x="0" y="115" fill="#000000" font-size="5px" font-weight="bold" font-family="'Helvetica Neue', Helvetica, Arial-Unicode, Arial, Sans-serif">Created by nakals</text><text x="0" y="120" fill="#000000" font-size="5px" font-weight="bold" font-family="'Helvetica Neue', Helvetica, Arial-Unicode, Arial, Sans-serif">from the Noun Project</text></svg>