<svg xmlns="http://www.w3.org/2000/svg" xmlns:xlink="http://www.w3.org/1999/xlink" version="1.1" x="0px" y="0px" viewBox="0 0 100 125" enable-background="new 0 0 100 100" xml:space="preserve"><path d="M98.5,22.908c0-0.022-0.012-0.041-0.013-0.063c-0.005-0.069-0.021-0.132-0.04-0.197c-0.017-0.062-0.031-0.122-0.059-0.177  c-0.028-0.057-0.066-0.104-0.104-0.154c-0.039-0.052-0.075-0.104-0.124-0.147c-0.046-0.041-0.098-0.069-0.15-0.101  c-0.06-0.036-0.117-0.071-0.185-0.094c-0.021-0.007-0.034-0.023-0.056-0.029c-0.045-0.013-0.09-0.004-0.136-0.01  c-0.046-0.007-0.086-0.027-0.134-0.027c-10.339,0-87.348,9.728-94.352,24.041c-0.28,0.41-1.648,2.687-1.648,7.943  c0,0.553,0.448,1,1,1h14.43c-0.485,4.362-4.09,7.763-8.458,7.763H2.5c-0.552,0-1,0.447-1,1v13.438c0,0.553,0.448,1,1,1h20.568  c0.552,0,1-0.447,1-1c0-15.193,12.36-27.553,27.553-27.553c15.193,0,27.555,12.36,27.555,27.553c0,0.553,0.447,1,1,1h11.611  c0.553,0,1-0.447,1-1c0-0.336,0.066-33.849,5.676-53.915c0.013-0.045,0.004-0.088,0.01-0.133C98.479,22.998,98.5,22.956,98.5,22.908  z M51.621,47.539c-15.96,0-28.997,12.719-29.527,28.553h-3.52c0.532-17.775,15.147-32.075,33.049-32.075  c17.901,0,32.516,14.299,33.048,32.075H81.15C80.62,60.258,67.583,47.539,51.621,47.539z M90.794,76.092h-4.123  c-0.532-18.878-16.043-34.075-35.048-34.075S17.106,57.214,16.574,76.092H3.5v-3.744h11.69c0.552,0,1-0.447,1-1s-0.448-1-1-1H3.5  v-5.693h4.972c5.799,0,10.518-4.828,10.518-10.763c0-0.553-0.448-1-1-1H3.521c0.159-4.092,1.254-5.777,1.288-5.828  c0.013-0.018,0.014-0.039,0.025-0.057c0.021-0.035,0.049-0.064,0.067-0.103c5.639-12.209,75.77-22.355,91.292-22.967  C91.381,42.356,90.852,70.475,90.794,76.092z"/><text x="0" y="115" fill="#000000" font-size="5px" font-weight="bold" font-family="'Helvetica Neue', Helvetica, Arial-Unicode, Arial, Sans-serif">Created by Noura Mbarki</text><text x="0" y="120" fill="#000000" font-size="5px" font-weight="bold" font-family="'Helvetica Neue', Helvetica, Arial-Unicode, Arial, Sans-serif">from the Noun Project</text></svg>