<svg xmlns="http://www.w3.org/2000/svg" xmlns:xlink="http://www.w3.org/1999/xlink" xmlns:serif="http://www.serif.com/" viewBox="0 0 417 521.25" version="1.1" xml:space="preserve" style="" x="0px" y="0px" fill-rule="evenodd" clip-rule="evenodd" stroke-linejoin="round" stroke-miterlimit="2"><rect serif:id="Page 47" x="0" y="0" width="416.667" height="416.667" style="" fill="none"/><path d="M70.964,215.04l16.207,15.463c0.804,0.767 1.955,1.05 3.023,0.742c1.068,-0.309 1.892,-1.161 2.164,-2.239c6.883,-27.289 31.611,-47.511 61.025,-47.511c34.733,-0 62.931,28.198 62.931,62.93c-0,12.942 -3.882,26.82 -10.578,36.835c-0.641,0.959 -0.702,2.193 -0.159,3.21c0.544,1.017 1.603,1.652 2.756,1.652l24.813,0l18.48,25.028c0.589,0.798 1.522,1.269 2.513,1.269l76.379,-0c1.726,-0 3.125,-1.399 3.125,-3.125l-0,-124.659c-0,0 60.255,-67.671 60.255,-67.671c0.698,-0.785 0.956,-1.868 0.685,-2.884c-0.271,-1.015 -1.034,-1.826 -2.031,-2.158l-22.54,-7.514c-0.857,-0.285 -1.795,-0.186 -2.573,0.271l-31.024,18.25c-102.622,-12.123 -206.362,-13.071 -311.516,0.127c-1.558,0.195 -2.729,1.516 -2.735,3.086l-0.186,42.228c-0.002,0.544 0.137,1.078 0.404,1.551l24.604,43.532c0.555,0.981 1.594,1.587 2.721,1.587l21.257,0Zm256.429,71.082l-0,20.047c-0,-0 -71.676,-0 -71.676,-0l-14.802,-20.047l86.478,0Zm-95.624,-6.25c0.046,-1.1 0.09,-2.493 0.112,-4.138c0.005,-0.369 0.076,-0.735 0.208,-1.079c3.613,-9.39 5.591,-19.581 5.591,-30.23c0,-46.524 -37.772,-84.296 -84.297,-84.296c-34.703,-0 -64.537,21.016 -77.458,51.006c3.528,3.366 11.85,11.306 11.851,11.305c9.196,-27.418 35.11,-47.195 65.607,-47.195c38.182,-0 69.181,30.999 69.181,69.18c-0,12.175 -3.177,25.095 -8.723,35.447l17.928,0Zm95.624,0l-89.369,0c0.039,-0.978 0.075,-2.153 0.098,-3.501c3.754,-9.936 5.808,-20.703 5.808,-31.946c0,-49.974 -40.573,-90.546 -90.547,-90.546c-37.323,-0 -69.403,22.631 -83.253,54.911l-18.6,0c0,0.001 -23.298,-41.222 -23.298,-41.222c-0,0 0.169,-38.65 0.169,-38.65c104.068,-12.821 206.745,-11.734 308.322,0.341c0.679,0.081 1.365,-0.063 1.953,-0.409l30.707,-18.063c0,-0 16.692,5.564 16.692,5.564c0,-0 -57.891,65.016 -57.891,65.016c-0.51,0.573 -0.791,1.312 -0.791,2.078l-0,96.427Z"/><text x="0" y="432" fill="#000000" font-size="5px" font-weight="bold" font-family="'Helvetica Neue', Helvetica, Arial-Unicode, Arial, Sans-serif">Created by Agan24</text><text x="0" y="437" fill="#000000" font-size="5px" font-weight="bold" font-family="'Helvetica Neue', Helvetica, Arial-Unicode, Arial, Sans-serif">from the Noun Project</text></svg>