<svg xmlns="http://www.w3.org/2000/svg" xmlns:xlink="http://www.w3.org/1999/xlink" xml:space="preserve" style="shape-rendering:geometricPrecision;text-rendering:geometricPrecision;image-rendering:optimizeQuality;" viewBox="0 0 6.82666 8.533325000000001" x="0px" y="0px" fill-rule="evenodd" clip-rule="evenodd"><defs><style type="text/css">
   
    .fil1 {fill:none}
    .fil0 {fill:black}
   
  </style></defs><g><g><path class="fil0" d="M5.76844 4.62007l0.000137795 0 -0.000137795 0zm-4.91643 -2.47378c-0.0852598,0 -0.156429,0.0612638 -0.169217,0.145563l-0.161713 1.07088c-0.00577953,0.0381102 -0.000362205,0.0701929 0.0172441,0.104319l0.581634 1.12105c0.0303898,0.0587323 0.0857402,0.0923819 0.151827,0.0923819l4.28309 -3.93701e-006c0.0660748,0 0.121429,-0.0336378 0.151819,-0.0923701l0.581642 -1.12106c0.0176102,-0.0340118 0.0230236,-0.0662008 0.0172323,-0.104307l-0.161693 -1.07089c-0.0127795,-0.0842953 -0.0839606,-0.145551 -0.16922,-0.145551l-0.185831 -7.87402e-006c-0.0942874,0 -0.171008,0.0768268 -0.171008,0.171126l1.1811e-005 0.132776c0,0.171012 -0.139181,0.310051 -0.310067,0.310051l-3.78885 -7.87402e-006c-0.17089,0 -0.309949,-0.139031 -0.309949,-0.310039l0 -0.132787c0,-0.0943031 -0.0768228,-0.17111 -0.171126,-0.17111l-0.185823 -7.87402e-006zm4.70286 2.673l-4.28307 0c-0.117953,0 -0.220823,-0.0624567 -0.275209,-0.167138l-0.581492 -1.12106c-0.0312323,-0.0601693 -0.0415079,-0.122035 -0.031374,-0.189087l0.161724 -1.07089c0.0230394,-0.152791 0.151941,-0.263736 0.306551,-0.263736l0.18585 -3.93701e-006c0.17089,0 0.309913,0.139169 0.309913,0.310051l1.1811e-005 0.132776c0,0.0944252 0.076811,0.171126 0.171114,0.171126l3.78887 -7.87402e-006c0.0943189,0 0.171122,-0.076689 0.171122,-0.171114l1.5748e-005 -0.132787c0,-0.170874 0.139031,-0.310039 0.309913,-0.310039l0.18585 -3.93701e-006c0.15461,0 0.283512,0.110953 0.306543,0.263748l0.161736 1.07087c0.0101181,0.067063 -0.000137795,0.128929 -0.0313701,0.189106l-0.581508 1.12105c0,0 -3.93701e-006,7.87402e-006 -3.93701e-006,7.87402e-006 -0.0543701,0.104677 -0.157256,0.167146 -0.275189,0.167138z"/><path class="fil0" d="M4.38052 3.25613l-1.93425 0c-0.0190472,0 -0.0372638,-0.00782677 -0.0504016,-0.0215748l-0.470677 -0.496024c-0.0262953,-0.0277283 -0.0252165,-0.0717441 0.00264567,-0.0981496 0.027874,-0.0264213 0.0717441,-0.0252047 0.0981614,0.0025315l0.450067 0.474303 1.87455 0 0.450043 -0.474315c0.0264331,-0.0277323 0.0704291,-0.0289331 0.0981654,-0.00251969 0.027874,0.0263976 0.029063,0.0704252 0.00265354,0.0981654l-0.470547 0.495996c-0.0131614,0.0137559 -0.031374,0.0215984 -0.0504134,0.0215866z"/><path class="fil0" d="M2.73462 3.79507c-0.0955118,0 -0.173299,0.0776693 -0.173299,0.173177 0,0.095626 0.0777835,0.173295 0.173295,0.173295l1.35744 0c0.0955118,0 0.17328,-0.0776575 0.17328,-0.173295 2.3622e-005,-0.0955197 -0.0777835,-0.173173 -0.173291,-0.173173l-1.35743 -3.93701e-006zm1.35744 0.485402l-1.35744 0c-0.172079,0 -0.312102,-0.140012 -0.312102,-0.312224 7.87402e-006,-0.172094 0.140008,-0.312098 0.312098,-0.312098l1.35744 -3.93701e-006c0.172193,0 0.312205,0.140016 0.312205,0.312102 0,0.172209 -0.140012,0.312224 -0.312205,0.312224z"/><path class="fil0" d="M1.56135 4.20594l0.472972 0 -0.115752 -0.475268 -0.648343 0c-0.0230354,0.107331 -0.0125472,0.200925 0.0312323,0.278709 0.074185,0.131925 0.224669,0.185598 0.25989,0.196559zm0.561378 0.138925l-0.571252 0c-0.00581102,0 -0.0115984,-0.000712598 -0.0172677,-0.00215748 -0.00962205,-0.00241339 -0.239142,-0.0630748 -0.353098,-0.263862 -0.070185,-0.123854 -0.0808031,-0.270984 -0.0313583,-0.437402 0.00882283,-0.0295472 0.035937,-0.049685 0.066685,-0.049685l0.756752 -1.1811e-005c0.0319685,0 0.0599252,0.0218386 0.0673976,0.0529528l0.149673 0.614299c0.00507874,0.0207441 0.000350394,0.0425866 -0.0129134,0.0593504 -0.0131339,0.016748 -0.0332835,0.0265276 -0.0546181,0.0265157z"/><path class="fil0" d="M4.79236 4.20594l0.472969 0c0.0348425,-0.0108543 0.185579,-0.0645079 0.25987,-0.196559 0.0437913,-0.0777953 0.0542677,-0.171366 0.0312323,-0.278697l-0.648319 -1.1811e-005 -0.115752 0.475268zm0.482846 0.138925l-0.571252 0c-0.0213543,0 -0.0414961,-0.00975591 -0.0546417,-0.0265157 -0.0131378,-0.0167756 -0.0179724,-0.0385945 -0.0129055,-0.0593346l0.149681 -0.614315c0.00759843,-0.031122 0.0354291,-0.0529409 0.0673898,-0.0529409l0.756858 -1.1811e-005c0.0306378,0 0.0577677,0.0201496 0.0665709,0.0496969 0.0494567,0.166413 0.0389528,0.313551 -0.0313543,0.437402 -0.113819,0.20078 -0.343461,0.261449 -0.353102,0.263862 -0.00565748,0.00144094 -0.0114606,0.00216929 -0.0172441,0.00215748z"/><path class="fil0" d="M1.27771 3.35526c-0.0118307,0 -0.0237756,-0.00300787 -0.0347441,-0.00939764l-0.342362 -0.197661c-0.0215984,-0.0124291 -0.0347402,-0.0353307 -0.0347402,-0.0601732l7.87402e-006 -0.360823c0,-0.0383583 0.0309803,-0.0694606 0.0694528,-0.0694606 0.0383504,-3.93701e-006 0.0694646,0.0311102 0.0694646,0.0694606l1.1811e-005 0.320776 0.307642 0.177646c0.0332913,0.0191693 0.0446063,0.061626 0.0254331,0.0949094 -0.0128976,0.022189 -0.0361772,0.0347323 -0.0601654,0.0347244z"/><path class="fil0" d="M5.5491 3.35526c-0.024126,0 -0.0474213,-0.0125354 -0.0603268,-0.0347244 -0.0191496,-0.0332874 -0.00783465,-0.0757323 0.0254488,-0.0949055l0.307764 -0.17765 0 -0.320776c0,-0.0383583 0.0309921,-0.0694606 0.0694606,-0.0694606 0.0383701,-3.93701e-006 0.0694606,0.0311102 0.0694606,0.0694606l3.93701e-006 0.360811c0,0.0248425 -0.0132677,0.0477638 -0.0347362,0.060189l-0.34248 0.197654c-0.0109646,0.00638976 -0.0229173,0.00940945 -0.0345945,0.00940157z"/></g></g><rect class="fil1" width="6.82666" height="6.82666"/><text x="0" y="21.82666" fill="#000000" font-size="5px" font-weight="bold" font-family="'Helvetica Neue', Helvetica, Arial-Unicode, Arial, Sans-serif">Created by Circlon Tech</text><text x="0" y="26.82666" fill="#000000" font-size="5px" font-weight="bold" font-family="'Helvetica Neue', Helvetica, Arial-Unicode, Arial, Sans-serif">from the Noun Project</text></svg>