<svg xmlns="http://www.w3.org/2000/svg" data-name="Layer 1" viewBox="0 0 512 640" x="0px" y="0px"><title>3178 - Bumper</title><path d="M256,249.93c-35.29,0-70.56-3.5-102.73-10.49-40.05-8.72-73-22.55-95.21-40a8,8,0,1,1,9.88-12.58c20.34,16,51,28.75,88.73,37,62.2,13.53,136.46,13.53,198.66,0,37.7-8.2,68.39-21,88.73-37a8,8,0,1,1,9.88,12.58c-22.23,17.46-55.16,31.29-95.21,40C326.57,246.43,291.28,249.93,256,249.93Z"/><path d="M256,385.48c-58.17,0-117.14-9.77-175.27-29.05A84.05,84.05,0,0,1,23,276.57V174.36a8,8,0,0,1,16,0V276.57a68.08,68.08,0,0,0,46.77,64.68c113,37.45,227.5,37.45,340.46,0A68.08,68.08,0,0,0,473,276.57V174.36a8,8,0,0,1,16,0V276.57a84.05,84.05,0,0,1-57.73,79.86C373.14,375.71,314.17,385.48,256,385.48Z"/><path d="M337.36,302.52H174.64a8,8,0,0,1-7.64-5.61L147.33,234a8,8,0,0,1,15.28-4.78l17.91,57.29h151l17.91-57.29A8,8,0,1,1,364.67,234L345,296.91A8,8,0,0,1,337.36,302.52Z"/><path d="M130,337.23a7.85,7.85,0,0,1-2-.25c-12.35-3.16-24.86-6.83-37.18-10.92A52.12,52.12,0,0,1,55,276.57V231.65a8,8,0,0,1,12-6.92c18.15,10.54,40,19.29,65,26a8,8,0,0,1,5.92,7.73v70.76a8,8,0,0,1-8,8ZM71,245.05v31.52a36.14,36.14,0,0,0,24.84,34.31c8.65,2.87,17.4,5.53,26.12,7.94V264.55A295.49,295.49,0,0,1,71,245.05Z"/><path d="M382.07,337.23a8,8,0,0,1-8-8V258.56a8,8,0,0,1,5.92-7.82c25-6.74,46.88-15.49,65-26a8,8,0,0,1,12,6.92v44.92a52.12,52.12,0,0,1-35.8,49.49c-12.18,4-24.68,7.72-37.14,10.92A8,8,0,0,1,382.07,337.23Zm8-72.68v54.26c8.77-2.43,17.51-5.09,26.09-7.93A36.14,36.14,0,0,0,441,276.57V245.05A295.51,295.51,0,0,1,390.07,264.55Z"/><path d="M311.44,344H200.56a8,8,0,1,1,0-16H311.44a8,8,0,1,1,0,16Z"/><path d="M63,201.14a8,8,0,0,1-8-8V142.52H39v31.84a8,8,0,0,1-16,0V134.52a8,8,0,0,1,8-8H63a8,8,0,0,1,8,8v58.62A8,8,0,0,1,63,201.14Z"/><path d="M449,201.14a8,8,0,0,1-8-8V134.52a8,8,0,0,1,8-8h32a8,8,0,0,1,8,8v39.84a8,8,0,0,1-16,0V142.52H457v50.62A8,8,0,0,1,449,201.14Z"/><text x="0" y="527" fill="#000000" font-size="5px" font-weight="bold" font-family="'Helvetica Neue', Helvetica, Arial-Unicode, Arial, Sans-serif">Created by Designing Hub</text><text x="0" y="532" fill="#000000" font-size="5px" font-weight="bold" font-family="'Helvetica Neue', Helvetica, Arial-Unicode, Arial, Sans-serif">from the Noun Project</text></svg>