<svg xmlns="http://www.w3.org/2000/svg" viewBox="0 0 64 80" fill="none" x="0px" y="0px"><path d="M12 16C12 8.26801 18.268 2 26 2H38C45.732 2 52 8.26801 52 16V24C52 25.1046 51.1046 26 50 26C48.8954 26 48 25.1046 48 24V16C48 10.4772 43.5228 6 38 6H26C20.4772 6 16 10.4772 16 16V24C16 25.1046 15.1046 26 14 26C12.8954 26 12 25.1046 12 24V16Z" fill="black"/><path d="M14 29C15.1046 29 16 29.8954 16 31V48C16 53.5228 20.4772 58 26 58H38C43.5228 58 48 53.5228 48 48V31C48 29.8954 48.8954 29 50 29C51.1046 29 52 29.8954 52 31V48C52 55.732 45.732 62 38 62H26C18.268 62 12 55.732 12 48V31C12 29.8954 12.8954 29 14 29Z" fill="black"/><path d="M44 18C44 19.1046 43.1046 20 42 20H22C20.8954 20 20 19.1046 20 18C20 16.8954 20.8954 16 22 16L42 16C43.1046 16 44 16.8954 44 18Z" fill="black"/><path d="M22.4783 38.6529C21.7343 37.8365 20.4693 37.7777 19.6529 38.5217C18.8365 39.2657 18.7777 40.5307 19.5217 41.3471C26.3901 48.8843 37.6099 48.8843 44.4783 41.3471C45.2223 40.5307 45.1635 39.2657 44.3471 38.5217C43.5307 37.7777 42.2657 37.8365 41.5217 38.6529C36.2399 44.449 27.7601 44.449 22.4783 38.6529Z" fill="black"/><text x="0" y="79" fill="#000000" font-size="5px" font-weight="bold" font-family="'Helvetica Neue', Helvetica, Arial-Unicode, Arial, Sans-serif">Created by HideMaru</text><text x="0" y="84" fill="#000000" font-size="5px" font-weight="bold" font-family="'Helvetica Neue', Helvetica, Arial-Unicode, Arial, Sans-serif">from the Noun Project</text></svg>