<svg xmlns="http://www.w3.org/2000/svg" xmlns:xlink="http://www.w3.org/1999/xlink" version="1.1" x="0px" y="0px" viewBox="0 0 100 125" style="enable-background:new 0 0 100 100;" xml:space="preserve"><g><path d="M73,33.5c0,2.2,1.8,4.1,4,4.1s4-1.8,4-4.1c0-2.2-1.8-4.1-4-4.1S73,31.3,73,33.5z M77,31.8c0.9,0,1.6,0.8,1.6,1.7   s-0.7,1.7-1.6,1.7s-1.6-0.8-1.6-1.7S76.1,31.8,77,31.8z"/><path d="M87.1,23.3c-13-0.9-25.1-0.5-35.8,1.4c-8.6,1.5-16.4,3.8-23.1,7c-11.5,5.4-16,11.4-16.2,11.6c-0.2,0.3-0.3,0.6-0.2,0.9   c0.1,0.3,0.2,0.6,0.5,0.8c5.5,3.7,0.4,13.4,0.4,13.4c-0.2,0.4-0.2,0.8,0,1.2c0.2,0.4,0.6,0.6,1,0.6h14.4l0.2,0.1   c0.3,0.1,0.7,0.1,1-0.1c0.3-0.2,0.5-0.5,0.6-0.9c0.8-5.7,3.6-10.9,7.9-14.6c4.3-3.8,9.8-5.9,15.6-5.9c13,0,23.7,10.8,23.7,24   c0,4.4-1.2,8.7-3.5,12.5c-0.2,0.3-0.2,0.7-0.1,1c0.1,0.3,0.4,0.6,0.7,0.7l0.4,0.1c0.1,0,0.3,0.1,0.4,0.1H87c0.7,0,1.2-0.5,1.2-1.2   V24.5C88.2,23.9,87.7,23.4,87.1,23.3z M85.8,74.8h-9.3c1.9-3.7,2.9-7.8,2.9-12.1c0-14.5-11.7-26.3-26-26.3   c-6.3,0-12.4,2.3-17.1,6.5c-4.4,3.9-7.4,9.2-8.4,14.9H15.6c0.5-1.1,1-2.7,1.4-4.5c0.8-4.1,0-7.4-2.3-9.5c1.6-1.8,6.1-6,14.5-10   c6.5-3.1,14.1-5.4,22.5-6.8c10.2-1.7,21.7-2.2,34.1-1.4V74.8z"/></g><text x="0" y="115" fill="#000000" font-size="5px" font-weight="bold" font-family="'Helvetica Neue', Helvetica, Arial-Unicode, Arial, Sans-serif">Created by Anton Gajdosik</text><text x="0" y="120" fill="#000000" font-size="5px" font-weight="bold" font-family="'Helvetica Neue', Helvetica, Arial-Unicode, Arial, Sans-serif">from the Noun Project</text></svg>