<svg xmlns="http://www.w3.org/2000/svg" xmlns:xlink="http://www.w3.org/1999/xlink" version="1.1" x="0px" y="0px" viewBox="0 0 100 125" style="enable-background:new 0 0 100 100;" xml:space="preserve"><title>дверь</title><g><path d="M79.7,90.5H23c-5,0-9.7-2.7-12.1-7.1c-1-1.7-1.5-3.6-1.7-5.5L7,51.1c-0.3-3.8,0.9-7.5,3.4-10.3l23.5-26.6   c2.6-3,6.4-4.7,10.4-4.7c0,0,0,0,0,0h35.4c0,0,0,0,0,0c7.6,0,13.8,6.2,13.8,13.8v53.4C93.5,84.3,87.3,90.5,79.7,90.5z M44.3,11.5   c-3.4,0-6.6,1.5-8.9,4L11.9,42.1c-2.1,2.4-3.2,5.6-2.9,8.9l2.3,26.8c0.1,1.7,0.6,3.3,1.4,4.7c2.1,3.8,6.1,6.1,10.3,6.1h56.6   c6.5,0,11.8-5.3,11.8-11.8V23.3c0-6.5-5.3-11.8-11.8-11.8c0,0,0,0,0,0H44.3C44.3,11.5,44.3,11.5,44.3,11.5z"/></g><g><path d="M86,64H73c-0.6,0-1-0.4-1-1s0.4-1,1-1h13c0.6,0,1,0.4,1,1S86.6,64,86,64z"/></g><g><path d="M86,75H18c-0.6,0-1-0.4-1-1s0.4-1,1-1h68c0.6,0,1,0.4,1,1S86.6,75,86,75z"/></g><g><path d="M41,38c-0.3,0-0.5-0.1-0.7-0.3c-0.4-0.4-0.4-1,0-1.4l11-11c0.4-0.4,1-0.4,1.4,0s0.4,1,0,1.4l-11,11   C41.5,37.9,41.3,38,41,38z"/></g><g><path d="M40,31c-0.3,0-0.5-0.1-0.7-0.3c-0.4-0.4-0.4-1,0-1.4l5-5c0.4-0.4,1-0.4,1.4,0s0.4,1,0,1.4l-5,5C40.5,30.9,40.3,31,40,31z"/></g><g><path d="M86,53H15c-0.6,0-1-0.4-1-1v-2.5c0-2.5,0.9-4.9,2.6-6.7l21-22.7c1.9-2,4.5-3.1,7.2-3.1c0,0,0,0,0.1,0h35c1.9,0,3.7,0.7,5,2   c1.4,1.3,2.1,3.1,2.1,5c0,0,0,0.1,0,0.1V52C87,52.6,86.6,53,86,53z M16,51h69V24.1c0-1.4-0.6-2.6-1.5-3.6c-1-1-2.3-1.5-3.6-1.5h-35   c0,0,0,0,0,0c-2.2,0-4.2,0.9-5.7,2.5l-21,22.7c-1.3,1.5-2.1,3.3-2.1,5.3V51z"/></g><text x="0" y="115" fill="#000000" font-size="5px" font-weight="bold" font-family="'Helvetica Neue', Helvetica, Arial-Unicode, Arial, Sans-serif">Created by Marina Pugacheva</text><text x="0" y="120" fill="#000000" font-size="5px" font-weight="bold" font-family="'Helvetica Neue', Helvetica, Arial-Unicode, Arial, Sans-serif">from the Noun Project</text></svg>