<svg xmlns="http://www.w3.org/2000/svg" xmlns:xlink="http://www.w3.org/1999/xlink" xmlns:serif="http://www.serif.com/" viewBox="0 0 417 521.25" version="1.1" xml:space="preserve" style="" x="0px" y="0px" fill-rule="evenodd" clip-rule="evenodd" stroke-linejoin="round" stroke-miterlimit="2"><rect serif:id="Page 49" x="0" y="0" width="416.667" height="416.667" style="" fill="none"/><path d="M75.509,273.893l265.649,-0c14.201,-0 27.821,-5.644 37.861,-15.688c10.04,-10.045 15.677,-23.667 15.67,-37.869c-0.025,-51.593 -0.06,-66.166 -0.06,-66.166c-0.003,-1.174 -0.663,-2.247 -1.711,-2.779c0,0 -6.571,-3.339 -14.124,-3.858c-5.421,-0.373 -11.278,0.706 -15.853,4.992c-2.794,2.617 -5.147,6.464 -6.512,12.076c-3.197,13.142 -14.967,22.393 -28.493,22.393l-239.206,0c-13.525,0 -25.296,-9.251 -28.492,-22.393c-1.365,-5.612 -3.719,-9.459 -6.513,-12.076c-4.575,-4.286 -10.432,-5.365 -15.852,-4.992c-7.553,0.519 -14.125,3.858 -14.125,3.858c-1.047,0.532 -1.708,1.605 -1.71,2.779c-0,0 -0.035,14.573 -0.06,66.166c-0.007,14.202 5.63,27.824 15.67,37.869c10.04,10.044 23.659,15.688 37.861,15.688Zm-0,-6.25c-12.544,-0 -24.573,-4.985 -33.441,-13.857c-8.867,-8.872 -13.846,-20.904 -13.84,-33.447c0.02,-41.03 0.046,-58.643 0.056,-64.132c2.095,-0.853 5.879,-2.154 10.017,-2.439c3.795,-0.26 7.949,0.318 11.152,3.318c2.067,1.937 3.702,4.84 4.712,8.993c3.878,15.943 18.157,27.165 34.565,27.165l239.206,0c16.408,0 30.688,-11.222 34.566,-27.165c1.01,-4.153 2.645,-7.056 4.712,-8.993c3.203,-3 7.357,-3.578 11.151,-3.318c4.139,0.285 7.923,1.587 10.017,2.439c0.011,5.489 0.037,23.102 0.057,64.132c0.006,12.543 -4.973,24.575 -13.841,33.447c-8.867,8.872 -20.897,13.857 -33.44,13.857l-265.649,-0Zm18.71,-39.374c-0,-1.726 -1.399,-3.125 -3.125,-3.125l-35.167,-0c-1.726,-0 -3.125,1.399 -3.125,3.125l0,5.195c0,4.953 1.968,9.703 5.47,13.206c3.503,3.502 8.253,5.47 13.206,5.47c9.414,-0 19.616,-0 19.616,-0c1.726,-0 3.125,-1.399 3.125,-3.125l-0,-20.746Zm231.354,-3.125c-1.726,-0 -3.125,1.399 -3.125,3.125l-0,20.746c-0,1.726 1.399,3.125 3.125,3.125c-0,-0 10.202,-0 19.616,-0c4.953,-0 9.703,-1.968 13.205,-5.47c3.503,-3.503 5.47,-8.253 5.47,-13.206c0,-2.981 0,-5.195 0,-5.195c0,-1.726 -1.399,-3.125 -3.125,-3.125l-35.166,-0Zm-211.98,23.871c0,1.726 1.399,3.125 3.125,3.125l183.231,-0c1.725,-0 3.125,-1.399 3.125,-3.125l-0,-20.746c-0,-1.726 -1.4,-3.125 -3.125,-3.125l-183.231,-0c-1.726,-0 -3.125,1.399 -3.125,3.125l0,20.746Zm6.25,-3.125l0,-14.496c0,-0 176.98,-0 176.98,-0c0.001,-0 0.001,14.496 0.001,14.496l-176.981,-0Zm208.855,-14.496l28.916,-0c0,-0 0,2.07 0,2.07c0,3.296 -1.309,6.456 -3.639,8.786c-2.33,2.331 -5.491,3.64 -8.786,3.64l-16.491,-0l-0,-14.496Zm-240.729,-0l-0,14.496c-0,-0 -16.491,-0 -16.491,-0c-3.295,-0 -6.456,-1.309 -8.786,-3.64c-2.331,-2.33 -3.64,-5.49 -3.64,-8.786c0,-0 0,-2.07 0,-2.07l28.917,-0Z"/><text x="0" y="432" fill="#000000" font-size="5px" font-weight="bold" font-family="'Helvetica Neue', Helvetica, Arial-Unicode, Arial, Sans-serif">Created by Agan24</text><text x="0" y="437" fill="#000000" font-size="5px" font-weight="bold" font-family="'Helvetica Neue', Helvetica, Arial-Unicode, Arial, Sans-serif">from the Noun Project</text></svg>