<svg xmlns="http://www.w3.org/2000/svg" xmlns:xlink="http://www.w3.org/1999/xlink" viewBox="0 0 60 63.75" version="1.1" x="0px" y="0px"><title>14 -Hood- (Outline)</title><desc>Created with Sketch.</desc><g stroke="none" stroke-width="1" fill="none" fill-rule="evenodd" stroke-linecap="round" stroke-linejoin="round"><g transform="translate(-480.000000, -466.000000)" stroke="#000000" stroke-width="2"><g transform="translate(481.000000, 467.000000)"><path d="M29,0 C20,0 0,3 0,26 L0,45.867 C0,48.113 2.301,49.605 4.356,48.701 C8.994,46.66 17.287,44 29,44 C40.713,44 49.006,46.66 53.644,48.701 C55.699,49.605 58,48.113 58,45.867 L58,26 C58,3 38,0 29,0 Z"/><path d="M23,0.4263 L23,0.4263 C13.22,1.8213 0,7.3013 0,26.0003 L0,45.8673 C0,48.1133 2.301,49.6053 4.356,48.7013 C5.252,48.3063 6.289,47.8893 7.456,47.4723 C7.174,47.0103 7,46.4693 7,45.8673 L7,26.0003 C7,11.5453 14.897,3.3013 23,0.4263 Z"/><path d="M35,0.4263 L35,0.4263 C44.78,1.8213 58,7.3013 58,26.0003 L58,45.8673 C58,48.1133 55.699,49.6053 53.644,48.7013 C52.748,48.3063 51.711,47.8893 50.544,47.4723 C50.826,47.0103 51,46.4693 51,45.8673 L51,26.0003 C51,11.5453 43.103,3.3013 35,0.4263 Z"/><path d="M23,38 L23,25.486"/><path d="M35,25.4858 L35,37.9998"/><path d="M29,25 L29,38"/></g></g></g><text x="0" y="66" fill="#000000" font-size="5px" font-weight="bold" font-family="'Helvetica Neue', Helvetica, Arial-Unicode, Arial, Sans-serif">Created by Smashicons</text><text x="0" y="71" fill="#000000" font-size="5px" font-weight="bold" font-family="'Helvetica Neue', Helvetica, Arial-Unicode, Arial, Sans-serif">from the Noun Project</text></svg>