<svg xmlns="http://www.w3.org/2000/svg" xmlns:xlink="http://www.w3.org/1999/xlink" version="1.1" x="0px" y="0px" viewBox="0 0 48 60" style="enable-background:new 0 0 48 48;" xml:space="preserve"><g><path d="M20.65,3.65l-16,16C4.55,19.74,4.5,19.87,4.5,20v8c0,0.28,0.22,0.5,0.5,0.5c5.14,0,9.94,2.54,12.83,6.78   c0.2,0.29,0.39,0.6,0.57,0.91c0.18,0.31,0.35,0.63,0.51,0.95c0.32,0.65,0.59,1.32,0.82,2.02c0,0,0,0,0,0c0,0,0,0,0,0   c0.51,1.55,0.77,3.18,0.77,4.84c0,0.28,0.22,0.5,0.5,0.5h22c0.28,0,0.5-0.22,0.5-0.5v-5v-4V4c0-0.28-0.22-0.5-0.5-0.5H21   C20.87,3.5,20.74,3.55,20.65,3.65z M42.5,43.5H21.49c-0.04-1.37-0.26-2.7-0.63-4H42.5V43.5z M42.5,38.5H20.56   c-0.03-0.07-0.06-0.14-0.09-0.21c-0.14-0.38-0.29-0.75-0.46-1.12c-0.05-0.1-0.09-0.21-0.14-0.31c-0.21-0.44-0.44-0.87-0.68-1.28   c-0.01-0.02-0.03-0.05-0.04-0.08H42.5V38.5z M42.5,4.5v30H18.49c-3-4.25-7.8-6.84-12.99-6.99v-7.3L21.21,4.5H42.5z"/><path d="M13,24.5h26c0.28,0,0.5-0.22,0.5-0.5V8c0-0.28-0.22-0.5-0.5-0.5H23c-0.13,0-0.26,0.05-0.35,0.15l-10,10   c-0.09,0.09-0.15,0.22-0.15,0.35v6C12.5,24.28,12.72,24.5,13,24.5z M13.5,18.21l9.71-9.71H38.5v15h-25V18.21z"/><path d="M39,27.5h-6c-0.28,0-0.5,0.22-0.5,0.5v2c0,0.28,0.22,0.5,0.5,0.5h6c0.28,0,0.5-0.22,0.5-0.5v-2   C39.5,27.72,39.28,27.5,39,27.5z M38.5,29.5h-5v-1h5V29.5z"/><path d="M27.82,12.65c-0.2-0.2-0.51-0.2-0.71,0s-0.2,0.51,0,0.71l3.54,3.54c0.1,0.1,0.23,0.15,0.35,0.15s0.26-0.05,0.35-0.15   c0.2-0.2,0.2-0.51,0-0.71L27.82,12.65z"/><path d="M25.7,13.35c-0.2-0.2-0.51-0.2-0.71,0s-0.2,0.51,0,0.71l4.95,4.95c0.1,0.1,0.23,0.15,0.35,0.15s0.26-0.05,0.35-0.15   c0.2-0.2,0.2-0.51,0-0.71L25.7,13.35z"/></g><text x="0" y="63" fill="#000000" font-size="5px" font-weight="bold" font-family="'Helvetica Neue', Helvetica, Arial-Unicode, Arial, Sans-serif">Created by Fahmihorizon</text><text x="0" y="68" fill="#000000" font-size="5px" font-weight="bold" font-family="'Helvetica Neue', Helvetica, Arial-Unicode, Arial, Sans-serif">from the Noun Project</text></svg>